<svg xmlns="http://www.w3.org/2000/svg" xmlns:xlink="http://www.w3.org/1999/xlink" viewBox="0,0,256,256" width="40px" height="40px"><g fill="none" fill-rule="nonzero" stroke="none" stroke-width="1" stroke-linecap="butt" stroke-linejoin="miter" stroke-miterlimit="10" stroke-dasharray="" stroke-dashoffset="0" font-family="none" font-weight="none" font-size="none" text-anchor="none" style="mix-blend-mode: normal"><g transform="translate(0.0006,256.0006) rotate(-90) scale(3.2,3.2)"><path d="M6.998,77.5c-1.202,0 -2.331,-0.468 -3.181,-1.317c-1.753,-1.753 -1.753,-4.607 0,-6.36l36.828,-35.11l4.656,4.661l-35.131,36.817c-0.841,0.841 -1.971,1.309 -3.172,1.309z" fill="#b6c9d6"></path><path d="M40.636,35.411l3.966,3.97l-34.777,36.448c-0.756,0.755 -1.759,1.171 -2.827,1.171c-1.068,0 -2.072,-0.416 -2.827,-1.171c-1.559,-1.559 -1.559,-4.095 -0.017,-5.637l36.482,-34.781M40.654,34.013l-37.19,35.456c-1.952,1.952 -1.951,5.116 0,7.068c0.976,0.975 2.255,1.463 3.534,1.463c1.279,0 2.558,-0.488 3.534,-1.464l35.468,-37.17l-5.346,-5.353z" fill="#788b9c"></path><g><path d="M52,53.5c-14.061,0 -25.5,-11.439 -25.5,-25.5c0,-14.061 11.439,-25.5 25.5,-25.5c14.061,0 25.5,11.439 25.5,25.5c0,14.061 -11.439,25.5 -25.5,25.5z" fill="#d1edff"></path><path d="M52,3c13.785,0 25,11.215 25,25c0,13.785 -11.215,25 -25,25c-13.785,0 -25,-11.215 -25,-25c0,-13.785 11.215,-25 25,-25M52,2c-14.359,0 -26,11.641 -26,26c0,14.359 11.641,26 26,26c14.359,0 26,-11.641 26,-26c0,-14.359 -11.641,-26 -26,-26z" fill="#788b9c"></path></g></g></g></svg>